<?xml version="1.0" encoding="UTF-8"?>
<svg width="42px" height="41px" viewBox="0 0 42 41" version="1.1" xmlns="http://www.w3.org/2000/svg" xmlns:xlink="http://www.w3.org/1999/xlink">
    <title>Group</title>
    <g id="Page-1" stroke="none" stroke-width="1" fill="none" fill-rule="evenodd">
        <g id="Komanda---HD" transform="translate(-188.000000, -706.000000)">
            <g id="Group" transform="translate(188.305143, 706.000000)">
                <ellipse id="Oval" fill="#0E2A2A" cx="20.5" cy="20.5" rx="18.5610521" ry="18.3656008"></ellipse>
                <g id="linkedin-2662666" fill="#E4F2E7" fill-rule="nonzero">
                    <path d="M22.5581711,18.2047277 L22.5894814,18.2047277 L22.5894814,18.155526 L22.5581711,18.2047277 Z M22.5581711,18.2047277 L22.5894814,18.2047277 L22.5894814,18.155526 L22.5581711,18.2047277 Z M22.5581711,18.2047277 L22.5894814,18.2047277 L22.5894814,18.155526 L22.5581711,18.2047277 Z M22.5581711,18.2047277 L22.5894814,18.2047277 L22.5894814,18.155526 L22.5581711,18.2047277 Z M22.5581711,18.2047277 L22.5894814,18.2047277 L22.5894814,18.155526 L22.5581711,18.2047277 Z M22.5581711,18.2047277 L22.5894814,18.2047277 L22.5894814,18.155526 L22.5581711,18.2047277 Z M22.5581711,18.2047277 L22.5894814,18.2047277 L22.5894814,18.155526 L22.5581711,18.2047277 Z M22.5581711,18.2047277 L22.5894814,18.2047277 L22.5894814,18.155526 L22.5581711,18.2047277 Z M22.5581711,18.2047277 L22.5894814,18.2047277 L22.5894814,18.155526 L22.5581711,18.2047277 Z M22.5581711,18.2047277 L22.5894814,18.2047277 L22.5894814,18.155526 L22.5581711,18.2047277 Z M22.5581711,18.2047277 L22.5894814,18.2047277 L22.5894814,18.155526 L22.5581711,18.2047277 Z M22.5581711,18.2047277 L22.5894814,18.2047277 L22.5894814,18.155526 L22.5581711,18.2047277 Z M22.5581711,18.2047277 L22.5894814,18.2047277 L22.5894814,18.155526 L22.5581711,18.2047277 Z M22.5581711,18.2047277 L22.5894814,18.2047277 L22.5894814,18.155526 L22.5581711,18.2047277 Z M22.5581711,18.2047277 L22.5894814,18.2047277 L22.5894814,18.155526 L22.5581711,18.2047277 Z M22.5581711,18.2047277 L22.5894814,18.2047277 L22.5894814,18.155526 L22.5581711,18.2047277 Z M20.5230062,0.134252371 C9.24110544,0.134252371 0.095317827,9.28003998 0.095317827,20.5619407 C0.095317827,31.8438415 9.24110544,40.9896291 20.5230062,40.9896291 C31.804907,40.9896291 40.9506946,31.8438415 40.9506946,20.5619407 C40.9383689,9.28514941 31.7997975,0.146578092 20.5230062,0.134252371 Z M15.4149659,29.7582025 C15.4125181,29.9466672 15.259034,30.0981421 15.0705534,30.0981421 L11.1344102,30.0981421 C10.9466667,30.0981421 10.7944411,29.9459459 10.7944411,29.7582025 L10.7944411,16.5318669 C10.793274,16.4409368 10.8285601,16.3533183 10.8924413,16.2885966 C10.9563225,16.2238748 11.0434723,16.1874544 11.1344102,16.1874544 L15.0705534,16.1874544 C15.1618972,16.1874544 15.2494999,16.2237406 15.3140898,16.2883305 C15.3786797,16.3529204 15.4149659,16.440523 15.4149659,16.5318669 L15.4149659,29.7582025 Z M12.9638222,14.4206669 C11.5977414,14.4206669 10.4903141,13.3132355 10.4903141,11.9471547 C10.4903141,10.5810739 11.5977414,9.47364658 12.9638222,9.47364658 C14.329903,9.47364658 15.4373344,10.5810739 15.4373344,11.9471547 C15.4385205,12.603534 15.1783017,13.2333722 14.7141707,13.6975032 C14.2500397,14.1616342 13.6202015,14.421853 12.9638222,14.4206669 Z M32.072008,29.7582025 C32.0695602,29.9466672 31.9160761,30.098158 31.7275955,30.0981421 L27.7914524,30.0981421 C27.7012948,30.0981421 27.6148298,30.0623271 27.5510787,29.9985761 C27.4873277,29.934825 27.4515127,29.8483601 27.4515127,29.7582025 L27.4515127,22.6507804 C27.4515127,20.7811124 26.7850521,19.5197574 25.1121913,19.5197574 C24.0440813,19.5257308 23.0950645,20.2025768 22.7415596,21.2105098 C22.6236413,21.5740631 22.5721272,21.9558737 22.5894814,22.3376781 L22.5894814,29.7582025 C22.5894814,29.9484163 22.4352826,30.102615 22.2450688,30.102615 L18.3089257,30.102615 C18.2179877,30.102615 18.1308379,30.0661946 18.0669567,30.0014728 C18.0030755,29.9367511 17.9677895,29.8491326 17.9689566,29.7582025 C17.9689566,27.8706429 18.0181878,18.7056914 17.9689566,16.5497585 C17.9677895,16.4588284 18.0030755,16.3712099 18.0669567,16.3064881 C18.1308379,16.2417664 18.2179877,16.2053381 18.3089257,16.2053459 L22.2361231,16.2053459 C22.327834,16.2041311 22.4161443,16.240027 22.4809994,16.3048821 C22.5458545,16.3697372 22.5817505,16.4580475 22.5805356,16.5497585 L22.5805356,18.1734175 C23.4333126,16.6930641 25.0378126,15.8089518 26.7447961,15.878825 C29.7818884,15.878825 32.0630623,17.8647881 32.0630623,22.1408709 L32.072008,29.7582025 Z M22.5894814,18.2181464 L22.5894814,18.1689446 L22.5581711,18.2181464 L22.5894814,18.2181464 Z M22.5581711,18.2181464 L22.5894814,18.2181464 L22.5894814,18.1689446 L22.5581711,18.2181464 Z M22.5581711,18.2181464 L22.5894814,18.2181464 L22.5894814,18.1689446 L22.5581711,18.2181464 Z M22.5581711,18.2181464 L22.5894814,18.2181464 L22.5894814,18.1689446 L22.5581711,18.2181464 Z M22.5581711,18.2181464 L22.5894814,18.2181464 L22.5894814,18.1689446 L22.5581711,18.2181464 Z M22.5581711,18.2181464 L22.5894814,18.2181464 L22.5894814,18.1689446 L22.5581711,18.2181464 Z M22.5581711,18.2181464 L22.5894814,18.2181464 L22.5894814,18.1689446 L22.5581711,18.2181464 Z M22.5581711,18.2181464 L22.5894814,18.2181464 L22.5894814,18.1689446 L22.5581711,18.2181464 Z M22.5581711,18.2181464 L22.5894814,18.2181464 L22.5894814,18.1689446 L22.5581711,18.2181464 Z M22.5581711,18.2181464 L22.5894814,18.2181464 L22.5894814,18.1689446 L22.5581711,18.2181464 Z M22.5581711,18.2181464 L22.5894814,18.2181464 L22.5894814,18.1689446 L22.5581711,18.2181464 Z M22.5581711,18.2181464 L22.5894814,18.2181464 L22.5894814,18.1689446 L22.5581711,18.2181464 Z M22.5581711,18.2181464 L22.5894814,18.2181464 L22.5894814,18.1689446 L22.5581711,18.2181464 Z M22.5581711,18.2181464 L22.5894814,18.2181464 L22.5894814,18.1689446 L22.5581711,18.2181464 Z M22.5581711,18.2181464 L22.5894814,18.2181464 L22.5894814,18.1689446 L22.5581711,18.2181464 Z" id="Shape"></path>
                </g>
            </g>
        </g>
    </g>
</svg>