<?xml version="1.0" encoding="UTF-8"?>
<svg width="100pt" height="100pt" version="1.1" viewBox="0 0 100 100" xmlns="http://www.w3.org/2000/svg">
 <g>
  <path d="m79.145 24.246h-43.246c-0.44922 0-0.88672 0.15234-1.2383 0.43359l-5.0391 4.0312c-1.4648 1.1719-0.63672 3.5312 1.2383 3.5312h43.246c0.44922 0 0.88672-0.15234 1.2383-0.43359l5.0391-4.0312c1.4648-1.168 0.63672-3.5312-1.2383-3.5312z"/>
  <path d="m20.855 54h53.246c0.44922 0 0.88672-0.15234 1.2383-0.43359l5.0391-4.0312c1.4688-1.1719 0.64062-3.5352-1.2344-3.5352h-53.246c-0.44922 0-0.88672 0.15234-1.2383 0.43359l-5.0391 4.0312c-1.4688 1.1719-0.64062 3.5352 1.2344 3.5352z"/>
  <path d="m20.855 75.754h53.246c0.44922 0 0.88672-0.15234 1.2383-0.43359l5.0391-4.0312c1.4648-1.1719 0.63672-3.5312-1.2383-3.5312l-53.242-0.003906c-0.44922 0-0.88672 0.15234-1.2383 0.43359l-5.0391 4.0312c-1.4688 1.1719-0.64062 3.5352 1.2344 3.5352z"/>
 </g>
</svg>
