<?xml version="1.0" encoding="UTF-8"?>
<svg width="23px" height="15px" viewBox="0 0 23 15" version="1.1" xmlns="http://www.w3.org/2000/svg" xmlns:xlink="http://www.w3.org/1999/xlink">
    <title>np_email_1569995_000000</title>
    <g id="Page-1" stroke="none" stroke-width="1" fill="none" fill-rule="evenodd">
        <g id="Kontaktai---HD" transform="translate(-118.000000, -684.000000)" fill="#000000" fill-rule="nonzero">
            <g id="Group" transform="translate(72.000000, 397.000000)">
                <g id="np_email_1569995_000000" transform="translate(46.984335, 287.240000)">
                    <path d="M1.57384615,0 C1.36789265,0 1.17220062,0.0430342 0.991837846,0.114759615 L10.1232932,7.885625 C10.5228928,8.22581185 10.9686322,8.22581185 11.3692548,7.885625 L20.509104,0.106628077 C20.3318417,0.0379769077 20.1381747,0 19.9353059,0 L1.57384615,0 Z M0.0163942308,1.34432692 C0.00614796769,1.41810096 0,1.49699787 0,1.57384615 L0,12.0661538 C0,12.9381171 0.701882923,13.64 1.57384615,13.64 L19.9353846,13.64 C20.8073478,13.64 21.5092308,12.9381171 21.5092308,12.0661538 L21.5092308,1.57384615 C21.5092308,1.49699787 21.5030828,1.41810096 21.4928365,1.34432692 L12.3939073,9.08240385 C11.4502029,9.88469815 10.0413221,9.88572115 9.09879808,9.08240385 L0.0163942308,1.34432692 Z" id="Shape"></path>
                </g>
            </g>
        </g>
    </g>
</svg>