<?xml version="1.0" encoding="UTF-8"?>
<svg width="20px" height="24px" viewBox="0 0 20 24" version="1.1" xmlns="http://www.w3.org/2000/svg" xmlns:xlink="http://www.w3.org/1999/xlink">
    <title>np_location_888709_000000</title>
    <g id="Page-1" stroke="none" stroke-width="1" fill="none" fill-rule="evenodd">
        <g id="Kontaktai---HD" transform="translate(-119.000000, -608.000000)" fill="#000000" fill-rule="nonzero">
            <g id="Group" transform="translate(72.000000, 397.000000)">
                <g id="np_location_888709_000000" transform="translate(47.984335, 211.780000)">
                    <path d="M9.26470588,15.3860294 C4.30147059,15.3860294 0.30375,16.9021324 0.30375,18.8331618 C0.30375,20.7628676 4.30147059,22.2802941 9.26470588,22.2802941 C14.2279412,22.2802941 18.2256618,20.7641912 18.2256618,18.8331618 C18.2256618,16.9021654 14.2279412,15.3860294 9.26470588,15.3860294 L9.26470588,15.3860294 Z M9.26470588,20.2109559 C5.81757353,20.2109559 3.06066176,19.5905515 3.06066176,18.8318382 C3.06066176,18.073125 5.81757353,17.4527206 9.26470588,17.4527206 C12.7118382,17.4527206 15.46875,18.073125 15.46875,18.8318382 C15.46875,19.5905515 12.7118382,20.2109559 9.26470588,20.2109559 Z" id="Shape"></path>
                    <path d="M9.26470588,0.221029412 C5.81757353,0.221029412 3.06066176,2.97794118 3.06066176,6.42507353 C3.06066176,9.87220588 9.26470588,19.5220588 9.26470588,19.5220588 C9.26470588,19.5220588 15.46875,9.87088235 15.46875,6.42507353 C15.46875,2.97794118 12.7118382,0.221029412 9.26470588,0.221029412 Z M9.26470588,9.18198529 C7.74860294,9.18198529 6.50779412,7.94117647 6.50779412,6.42507353 C6.50779412,4.90897059 7.74860294,3.66816176 9.26470588,3.66816176 C10.7808088,3.66816176 12.0216176,4.90897059 12.0216176,6.42507353 C12.0216176,7.94117647 10.7808088,9.18198529 9.26470588,9.18198529 Z" id="Shape"></path>
                </g>
            </g>
        </g>
    </g>
</svg>