<?xml version="1.0" encoding="UTF-8"?>
<svg width="19px" height="21px" viewBox="0 0 19 21" version="1.1" xmlns="http://www.w3.org/2000/svg" xmlns:xlink="http://www.w3.org/1999/xlink">
    <title>np_phone_2944979_000000</title>
    <g id="Page-1" stroke="none" stroke-width="1" fill="none" fill-rule="evenodd">
        <g id="Kontaktai---HD" transform="translate(-119.000000, -647.000000)" fill="#000000" fill-rule="nonzero">
            <g id="Group" transform="translate(72.000000, 397.000000)">
                <g id="np_phone_2944979_000000" transform="translate(47.984335, 250.500000)">
                    <path d="M11.1318567,13.8214127 C10.3716459,14.8661739 9.51047525,14.236147 9.19836712,13.9449144 L9.19836712,13.9282249 C7.84818435,12.6656503 6.10334822,10.4183435 5.15441987,9.14918926 C4.20549152,7.88003498 4.94079349,7.19651603 5.13939937,7.04046196 L5.18446172,7.00875127 C5.36554425,6.88357903 5.53912422,6.74923795 5.70600915,6.60570239 C5.87374003,6.45633055 6.03061442,6.29611505 6.17581627,6.12504305 L1.78558066,1.22573579 C1.16890541,1.85826212 0.700764575,2.61930608 0.414526597,3.45471338 C0.301037586,3.83857861 0.218423995,4.23160841 0.166677278,4.62965843 C0.121614931,5.0076703 0.040671898,5.95647047 0.414526597,7.47281184 C0.702430861,8.59101773 1.13301618,9.66825008 1.69628484,10.6772074 C2.437312,12.0324104 3.35688809,13.2832356 4.43006154,14.3938791 C4.43006154,14.3938791 5.60250717,15.7056732 6.53210233,16.5577006 C7.33736695,17.2945407 8.66836607,18.480338 10.6745313,19.0910958 C11.4672775,19.3280929 12.3601716,19.5867731 13.4516742,19.3389451 L13.4516742,19.3397795 C14.2310687,19.1411732 14.9520577,18.7598267 15.553715,18.2265939 C15.8340996,18.0046147 16.0969669,17.7634519 16.3422954,17.5047717 L11.9396695,12.5913651 C11.6492658,12.9869157 11.3797334,13.3974629 11.1319054,13.8213831 L11.1318567,13.8214127 Z" id="Path"></path>
                    <path d="M17.1693653,14.7060396 C15.9560316,13.714685 13.5210541,11.8370374 13.3240905,11.7370602 C12.9952982,11.5618204 12.6106212,11.8138333 12.2559587,12.2010353 L16.6628571,17.1353773 C16.9415755,16.7999198 17.1919242,16.4427579 17.4130489,16.0672455 C17.6759161,15.6149557 17.5724334,15.0391685 17.1693866,14.7062105 L17.1693653,14.7060396 Z" id="Path"></path>
                    <path d="M7.19322725,4.89674374 C7.11562106,4.69980585 5.55430708,2.04611341 4.72327912,0.720134505 C4.44789336,0.271177319 3.88712413,0.0892744615 3.40146593,0.292881758 C3.00174963,0.464784765 2.6178844,0.669227341 2.25155789,0.903725011 L6.59928185,5.90471842 C7.02820088,5.59513108 7.32526971,5.24465565 7.19341952,4.89665829 L7.19322725,4.89674374 Z" id="Path"></path>
                </g>
            </g>
        </g>
    </g>
</svg>